<?xml version="1.0" encoding="UTF-8" standalone="no"?>
<!-- Created with Inkscape (http://www.inkscape.org/) -->

<svg
   version="1.1"
   id="svg1"
   width="549.32001"
   height="119.57333"
   viewBox="0 0 549.32001 119.57333"
   sodipodi:docname="Logo_VarianteA.eps"
   xmlns:inkscape="http://www.inkscape.org/namespaces/inkscape"
   xmlns:sodipodi="http://sodipodi.sourceforge.net/DTD/sodipodi-0.dtd"
   xmlns="http://www.w3.org/2000/svg"
   xmlns:svg="http://www.w3.org/2000/svg">
  <defs
     id="defs1" />
  <sodipodi:namedview
     id="namedview1"
     pagecolor="#000000"
     bordercolor="#000000"
     borderopacity="0.25"
     inkscape:showpageshadow="2"
     inkscape:pageopacity="0.0"
     inkscape:pagecheckerboard="0"
     inkscape:deskcolor="#d1d1d1">
    <inkscape:page
       x="0"
       y="0"
       inkscape:label="1"
       id="page1"
       width="549.32001"
       height="119.57333"
       margin="0"
       bleed="0" />
  </sodipodi:namedview>
  <g
     id="g1"
     inkscape:groupmode="layer"
     inkscape:label="1">
    <g
       id="group-R5">
      <path
         id="path2"
         d="m 1341.09,785.156 c -14.1,15.84 -46.52,25.707 -73.31,25.707 -26.8,0 -58.8,-9.867 -72.91,-25.707 -19.03,-20.664 -23.97,-43.398 -23.97,-137.769 0,-94.375 4.94,-117.102 23.97,-137.778 14.11,-15.836 46.68,-26.168 73.47,-26.168 11.99,0 31.56,3.481 37.94,6.559 l -43.64,40.188 74.56,72.363 26.14,-24.992 c 2.52,9.539 2.43,20.226 2.43,69.828 0,94.371 -5.64,117.105 -24.68,137.769 z m 60.58,-383.496 -23.98,21.867 c -26.38,-16.195 -59.87,-25.5 -99.35,-25.5 -57.12,0 -120.83,19.282 -156.09,53.719 -50.77,49.602 -49.36,110.91 -49.36,195.641 0,84.726 -1.41,146.035 49.36,195.633 35.26,34.441 98.97,53.734 156.09,53.734 57.11,0 100.12,-19.293 135.38,-53.734 50.76,-49.598 50.06,-110.907 50.06,-195.633 0,-73.711 3.12,-121.598 -17.17,-149.727 l 100.08,-96 h -145.02"
         style="fill:#ffffff;fill-opacity:1;fill-rule:nonzero;stroke:none"
         transform="matrix(0.13333333,0,0,-0.13333333,0,119.57333)" />
      <path
         id="path3"
         d="m 1512.32,593.652 v 95.75 h 200.55 v -95.75 h -200.55"
         style="fill:#ffffff;fill-opacity:1;fill-rule:nonzero;stroke:none"
         transform="matrix(0.13333333,0,0,-0.13333333,0,119.57333)" />
      <path
         id="path4"
         d="m 2154.56,402.281 -1.44,288.532 -96.89,-167.551 h -99.94 l -97.2,172.554 0.79,-293.66 h -98.01 v 490.457 h 96.59 l 148.6,-265.441 148.92,265.566 h 96.6 V 402.281 h -98.02"
         style="fill:#ffffff;fill-opacity:1;fill-rule:nonzero;stroke:none"
         transform="matrix(0.13333333,0,0,-0.13333333,0,119.57333)" />
      <path
         id="path5"
         d="m 2524.72,741.059 -52.94,-147.407 h 106.72 z m 123.4,-339.399 -32.49,94.434 h -178.76 l -33.04,-93.938 h -102.24 l 175.87,490.582 93.9,-0.125 179,-490.953 h -102.24"
         style="fill:#ffffff;fill-opacity:1;fill-rule:nonzero;stroke:none"
         transform="matrix(0.13333333,0,0,-0.13333333,0,119.57333)" />
      <path
         id="path6"
         d="M 3128.99,638.797 H 2992.06 V 451.863 h 136.3 c 60.67,0 109.01,38.313 109.01,93.469 0,55.152 -47.72,93.465 -108.38,93.465 z m -22.81,203.266 -112.94,-0.208 V 689.398 h 108.73 c 54.47,0 107.54,17.04 107.54,78.082 0,58.598 -23.96,74.583 -103.33,74.583 z m 27.26,-439.79 h -190.98 v 490.872 l 195.72,-0.536 c 85.49,0 122.11,-53.461 122.11,-113.879 0,-51.695 -14.95,-84.167 -55.8,-110.382 46.88,-17.235 82.47,-64.418 82.47,-123.016 0,-88.934 -66.66,-143.059 -153.52,-143.059"
         style="fill:#ffffff;fill-opacity:1;fill-rule:nonzero;stroke:none"
         transform="matrix(0.13333333,0,0,-0.13333333,0,119.57333)" />
      <path
         id="path7"
         d="m 3529.36,806.648 -83.18,-256.746 h 175.62 z m 143.9,-405.144 -34.14,96.398 h -211.17 l -34.53,-96.293 h -55.85 l 167,491.536 h 49.59 l 174.93,-491.641 h -55.83"
         style="fill:#ffffff;fill-opacity:1;fill-rule:nonzero;stroke:none"
         transform="matrix(0.13333333,0,0,-0.13333333,0,119.57333)" />
      <path
         id="path8"
         d="m 3945.91,398.191 c -99.27,0 -173.48,68.786 -173.48,166.684 l 0.62,328.27 h 50.32 l 0.26,-318.165 c 0,-74.457 50.84,-123.117 122.55,-123.117 71.69,0 122.55,48.52 122.55,122.973 L 4068.47,893 h 51.46 V 564.25 c 0,-97.898 -74.74,-166.059 -174.02,-166.059"
         style="fill:#ffffff;fill-opacity:1;fill-rule:nonzero;stroke:none"
         transform="matrix(0.13333333,0,0,-0.13333333,0,119.57333)" />
      <path
         id="path9"
         d="m 1072.89,0 v 231.109 h 47.37 v -18.48 h -23.95 V 18.4766 h 23.95 V 0 h -47.37"
         style="fill:#ffffff;fill-opacity:1;fill-rule:nonzero;stroke:none"
         transform="matrix(0.13333333,0,0,-0.13333333,0,119.57333)" />
      <path
         id="path10"
         d="m 1218.3,20.0391 -44.14,74.1797 33.72,56.9922 h 31.49 l -37.62,-56.2227 48.82,-74.9492 z m -70.69,0 V 174.887 c 0,6.941 -0.26,12.718 -0.78,17.312 -0.52,4.594 -1.39,8.813 -2.6,12.617 l 25.77,6.254 c 0.86,-3.121 1.6,-6.984 2.21,-11.578 0.6,-4.609 1,-9.414 1.17,-14.445 0,-0.52 0,-1.098 0,-1.699 0,-0.606 0,-1.168 0,-1.688 V 20.0391 h -25.77"
         style="fill:#ffffff;fill-opacity:1;fill-rule:nonzero;stroke:none"
         transform="matrix(0.13333333,0,0,-0.13333333,0,119.57333)" />
      <path
         id="path11"
         d="m 1356.32,15.0977 c -0.69,0.6875 -1.3,1.2929 -1.82,1.8125 -0.52,0.5195 -1.04,0.957 -1.56,1.3086 -2.43,2.0781 -4.39,4.2851 -5.86,6.6328 -1.48,2.3437 -2.65,4.9882 -3.51,7.9375 -4.69,-5.5508 -10.28,-9.75 -16.79,-12.6172 -6.51,-2.8672 -10.95,-4.5625 -19.1,-4.5625 -8.51,0 -16.01,1.7461 -22.52,5.2148 -6.5,3.4571 -10.97,8.2344 -13.4,14.3047 -1.21,2.6133 -2.08,5.6914 -2.6,9.2461 -0.52,3.5547 -0.78,7.7578 -0.78,12.6172 v 91.6168 l 25.5,4.95 V 63.2461 c 0,-6.2539 0.14,-11.0039 1.17,-14.0664 2.57,-7.6289 9.74,-11.8164 18.04,-11.7891 19.71,0.0625 24.49,13.3555 27.1,18.5703 v 92.3911 l 24.98,4.945 V 57.7734 c 0,-5.9023 0.31,-10.414 0.91,-13.5312 0.61,-3.1211 1.52,-5.9844 2.73,-8.5859 0.35,-0.7032 0.66,-1.3086 0.91,-1.8282 0.27,-0.5195 0.56,-1.039 0.92,-1.5586 0.52,-0.5195 0.99,-1.039 1.43,-1.5586 0.44,-0.5195 1,-1.1406 1.69,-1.8281 l -17.44,-13.7851"
         style="fill:#ffffff;fill-opacity:1;fill-rule:nonzero;stroke:none"
         transform="matrix(0.13333333,0,0,-0.13333333,0,119.57333)" />
      <path
         id="path12"
         d="m 1426.93,62.0742 c 3.73,-3.7226 5.59,-8.375 5.59,-13.9258 0,-5.3828 -1.86,-9.8476 -5.59,-13.4062 -3.74,-3.5547 -8.37,-5.3242 -13.92,-5.3242 -5.39,0 -9.9,1.7695 -13.54,5.3242 -3.63,3.5586 -5.46,8.0234 -5.46,13.4062 0,5.5508 1.91,10.2461 5.72,14.0508 3.82,3.8242 8.41,5.7344 13.8,5.7344 5.21,-0.168 9.66,-2.1211 13.4,-5.8594 z m -27.2,80.5588 c 3.82,3.808 8.41,5.719 13.8,5.719 5.21,0 9.66,-1.868 13.4,-5.594 3.73,-3.735 5.59,-8.289 5.59,-13.656 0,-5.383 -1.86,-9.993 -5.59,-13.801 -3.74,-3.821 -8.29,-5.731 -13.66,-5.731 -5.38,0 -9.93,1.825 -13.67,5.465 -3.74,3.653 -5.59,8.164 -5.59,13.547 0,5.551 1.91,10.231 5.72,14.051"
         style="fill:#ffffff;fill-opacity:1;fill-rule:nonzero;stroke:none"
         transform="matrix(0.13333333,0,0,-0.13333333,0,119.57333)" />
      <path
         id="path13"
         d="m 1603.88,20.0391 v 92.9099 c 0,6.942 -1.14,11.844 -3.39,14.711 -2.25,2.852 -5.98,4.285 -11.18,4.285 -1.56,0 -3.18,-0.168 -4.82,-0.519 -1.65,-0.352 -3.35,-0.871 -5.08,-1.559 -1.22,-0.519 -2.38,-1.082 -3.51,-1.687 -1.14,-0.617 -2.22,-1.266 -3.26,-1.953 -1.04,-0.704 -2.25,-1.559 -3.64,-2.598 -1.39,-1.043 -2.78,-2.18 -4.16,-3.391 -0.7,-0.699 -1.39,-1.347 -2.08,-1.953 -0.7,-0.601 -1.39,-1.164 -2.09,-1.683 -0.17,-0.184 -0.38,-0.395 -0.65,-0.661 -0.25,-0.253 -0.56,-0.562 -0.91,-0.914 V 20.0391 h -25.24 V 112.43 c 0,6.769 -1.09,11.617 -3.26,14.57 -2.16,2.949 -6.11,4.426 -11.84,4.426 -4.33,0 -8.9,-1.125 -13.66,-3.371 -4.78,-2.262 -9.94,-5.989 -15.49,-11.2 V 20.0391 h -24.98 v 95.2539 c 0,6.941 -0.13,12.227 -0.39,15.879 -0.26,3.641 -0.92,7.027 -1.96,10.144 -0.35,1.043 -0.68,2.082 -1.04,3.122 -0.35,1.039 -0.78,2.175 -1.3,3.386 l 23.94,5.985 c 1.06,-1.727 1.95,-3.766 2.74,-6.114 0.77,-2.343 1.34,-4.648 1.69,-6.898 0,-0.688 0.04,-1.391 0.14,-2.078 0.08,-0.703 0.12,-1.391 0.12,-2.078 1.21,1.207 2.3,2.246 3.25,3.117 0.96,0.871 1.95,1.644 2.99,2.347 0.52,0.52 1.14,1.04 1.83,1.559 0.69,0.52 1.39,1.039 2.08,1.559 0.69,0.351 1.48,0.773 2.35,1.308 0.87,0.52 1.72,1.039 2.6,1.559 2.95,1.73 5.81,3.035 8.58,3.894 2.78,0.871 5.47,1.477 8.07,1.825 0.7,0.171 1.39,0.269 2.09,0.269 0.69,0 1.38,0 2.08,0 0.17,0 0.39,0 0.65,0 0.26,0 0.47,0 0.64,0 6.09,-0.183 11.85,-1.953 17.32,-5.34 5.46,-3.386 9.58,-8.293 12.36,-14.699 4.68,4.848 9.54,8.883 14.57,12.098 5.03,3.207 10.15,5.426 15.36,6.633 1.73,0.351 3.43,0.644 5.07,0.914 1.65,0.254 3.35,0.394 5.08,0.394 4.69,0 9.06,-0.746 13.15,-2.223 4.07,-1.472 7.59,-3.511 10.54,-6.113 3.47,-3.117 6.07,-6.98 7.8,-11.574 1.74,-4.609 2.61,-10.371 2.61,-17.313 V 20.0391 h -25.77"
         style="fill:#ffffff;fill-opacity:1;fill-rule:nonzero;stroke:none"
         transform="matrix(0.13333333,0,0,-0.13333333,0,119.57333)" />
      <path
         id="path14"
         d="m 1723.99,83.543 c -1.13,0.082 -2.22,0.125 -3.26,0.125 -8.84,0 -15.92,-0.7305 -21.2,-2.2071 -5.3,-1.4765 -9.42,-3.6953 -12.37,-6.6328 -2.26,-2.2617 -3.9,-4.8593 -4.94,-7.8125 -1.04,-2.9492 -1.56,-6.4218 -1.56,-10.4101 0,-6.7735 1.68,-12.0157 5.07,-15.7539 3.39,-3.7227 8.29,-5.5938 14.71,-5.5938 5.37,0 10.44,1.4766 15.22,4.4258 4.78,2.9531 8.54,6.8594 11.33,11.7227 l 0.52,31.7421 c -1.23,0.168 -2.39,0.3086 -3.52,0.3946 z m 26.42,-69.0938 c -4.34,1.7266 -8.12,4.1602 -11.33,7.2774 -3.21,3.1211 -5.5,6.6757 -6.89,10.6797 -1.21,-1.0547 -2.25,-1.9532 -3.12,-2.7383 -0.88,-0.7891 -1.65,-1.6016 -2.35,-2.4727 -0.17,0 -0.44,-0.1719 -0.77,-0.5195 -0.35,-0.3555 -0.71,-0.6485 -1.04,-0.9141 -0.35,-0.2539 -0.71,-0.5625 -1.04,-0.914 -4.01,-2.9532 -8.29,-5.0743 -12.89,-6.3672 -4.61,-1.3047 -9.68,-1.9532 -15.23,-1.9532 -7.98,0 -14.53,0.9571 -19.64,2.8555 -5.12,1.9102 -9.42,4.5078 -12.89,7.8125 -2.95,2.7656 -5.26,6.0703 -6.9,9.8906 -1.64,3.8086 -2.73,7.7149 -3.25,11.7032 -0.18,1.0429 -0.3,2.039 -0.39,2.9961 -0.08,0.9531 -0.13,1.9531 -0.13,2.9921 0,15.1055 5.77,26.586 17.3,34.4961 11.54,7.8829 28.08,11.8316 49.59,11.8316 0.69,0 1.29,0 1.81,0 0.52,0 0.96,0 1.31,0 0.87,0 1.69,-0.042 2.47,-0.125 0.79,-0.085 1.77,-0.128 3,-0.128 v 7.8 c 0,5.032 -0.23,8.895 -0.65,11.59 -0.44,2.688 -1.43,4.977 -2.99,6.887 -1.75,2.094 -3.83,3.613 -6.26,4.566 -2.43,0.942 -5.55,1.418 -9.37,1.418 -3.64,0 -7.46,-0.433 -11.45,-1.289 -3.99,-0.875 -8.24,-2.347 -12.75,-4.429 -0.7,-0.348 -1.39,-0.645 -2.08,-0.911 -0.7,-0.254 -1.39,-0.562 -2.09,-0.914 -1.04,-0.519 -2.04,-1.039 -2.99,-1.558 -0.96,-0.524 -1.86,-1.125 -2.73,-1.817 -1.04,-0.531 -2.04,-1.136 -2.99,-1.824 -0.96,-0.703 -2.04,-1.476 -3.26,-2.348 l -11.97,18.481 c 1.57,1.039 3.09,1.992 4.56,2.863 1.46,0.871 2.9,1.645 4.29,2.348 1.39,0.687 2.87,1.433 4.43,2.207 1.56,0.785 3.12,1.516 4.67,2.207 0.54,0.18 1,0.348 1.44,0.531 0.43,0.168 0.91,0.336 1.43,0.52 1.91,0.859 3.87,1.601 5.86,2.207 2,0.605 3.95,1.168 5.86,1.687 3.81,1.039 7.67,1.824 11.58,2.348 3.91,0.519 7.84,0.785 11.84,0.785 9.71,0 17.86,-1.785 24.47,-5.34 6.59,-3.554 11.27,-8.894 14.05,-16.004 0.17,-0.351 0.3,-0.648 0.39,-0.914 0.09,-0.254 0.13,-0.562 0.13,-0.914 0.87,-2.43 1.43,-5.07 1.69,-7.937 0.26,-2.856 0.39,-7.153 0.39,-12.871 0,-0.352 0,-0.872 0,-1.575 0,-0.687 0,-1.39 0,-2.082 0,-0.168 0,-0.351 0,-0.519 -0.17,-0.871 -0.25,-1.645 -0.25,-2.348 0,-0.687 0,-1.121 0,-1.293 l -0.79,-39.8202 c 0,-0.3515 0,-0.8281 0,-1.4335 0,-0.6055 0,-1.168 0,-1.6875 0,-0.1797 0,-0.3907 0,-0.6602 0,-0.25 0,-0.5625 0,-0.8984 0,-7.6446 0.79,-13.2344 2.35,-16.793 1.56,-3.5547 4.51,-6.7305 8.84,-9.4961 l -13.27,-17.1719"
         style="fill:#ffffff;fill-opacity:1;fill-rule:nonzero;stroke:none"
         transform="matrix(0.13333333,0,0,-0.13333333,0,119.57333)" />
      <path
         id="path15"
         d="m 1940.33,104.363 c -0.42,3.809 -1.33,7.293 -2.72,10.41 -0.36,0.692 -0.65,1.309 -0.92,1.829 -0.25,0.519 -0.56,1.125 -0.91,1.812 -2.25,4.512 -5.33,7.856 -9.23,10.02 -3.91,2.175 -8.29,3.257 -13.16,3.257 -2.76,0 -5.42,-0.351 -7.92,-1.039 -2.53,-0.703 -4.9,-1.656 -7.17,-2.867 -0.87,-0.519 -1.68,-1.039 -2.47,-1.558 -0.77,-0.52 -1.6,-1.039 -2.47,-1.559 -1.21,-0.871 -2.17,-1.563 -2.86,-2.082 -0.7,-0.52 -1.3,-1.055 -1.82,-1.574 -0.19,-0.168 -0.35,-0.379 -0.52,-0.645 -0.18,-0.254 -0.35,-0.476 -0.52,-0.648 -0.35,-0.352 -0.65,-0.742 -0.92,-1.18 -0.26,-0.434 -0.64,-0.898 -1.16,-1.418 V 52.3125 c 2.93,-3.4687 6.84,-6.5039 11.7,-9.1172 4.87,-2.6015 10.06,-3.8906 15.61,-3.8906 4.52,0 8.65,1.0391 12.37,3.1172 3.74,2.082 6.65,4.7656 8.73,8.0664 2.08,3.4687 3.76,8.1094 5.07,13.9258 1.29,5.8164 1.95,13.6562 1.95,23.5507 0,7.1094 -0.22,12.5742 -0.66,16.3982 z m 23.43,-52.5661 c -4.08,-10.2461 -9.94,-18.4805 -17.57,-24.7344 -4.16,-3.3008 -8.58,-5.7187 -13.26,-7.293 -4.7,-1.5586 -9.81,-2.332 -15.36,-2.332 -6.61,0 -12.89,1.3906 -18.87,4.1602 -5.99,2.7812 -10.81,6.4218 -14.45,10.9336 -0.17,-0.875 -0.31,-1.6446 -0.39,-2.3477 -0.09,-0.6914 -0.21,-1.293 -0.4,-1.8125 -0.16,-0.7031 -0.29,-1.3906 -0.37,-2.082 -0.1,-0.6993 -0.31,-1.3047 -0.67,-1.8243 -0.16,-0.7031 -0.37,-1.3906 -0.64,-2.082 -0.25,-0.6992 -0.65,-1.4726 -1.17,-2.3437 h -24.46 c 1.37,3.1172 2.33,6.8007 2.85,11.0586 0.52,4.2578 0.79,10.8046 0.79,19.6562 V 174.113 c 0,7.461 -0.35,13.703 -1.04,18.735 -0.71,5.027 -1.74,9.285 -3.12,12.757 l 27.31,5.719 c 0.36,-2.25 0.71,-4.328 1.06,-6.238 0.34,-1.91 0.6,-3.824 0.77,-5.734 0.17,-2.598 0.35,-5.243 0.52,-7.926 0.17,-2.699 0.27,-5.692 0.27,-8.981 v -29.929 c 0,-0.352 0,-0.743 0,-1.18 0,-0.434 0,-0.828 0,-1.164 0,-2.434 -0.1,-4.695 -0.27,-6.774 -0.17,-2.082 -0.35,-3.472 -0.52,-4.16 0.69,0.688 1.43,1.391 2.22,2.078 0.77,0.692 1.5,1.391 2.21,2.082 4.68,3.653 9.37,6.336 14.05,8.067 4.69,1.742 9.89,2.613 15.61,2.613 15.79,0 28.24,-5.945 37.35,-17.832 9.12,-11.887 13.67,-28.16 13.67,-48.8007 0,-13.5351 -2.05,-25.4219 -6.12,-35.6484"
         style="fill:#ffffff;fill-opacity:1;fill-rule:nonzero;stroke:none"
         transform="matrix(0.13333333,0,0,-0.13333333,0,119.57333)" />
      <path
         id="path16"
         d="m 2063.41,83.4102 c -1.12,0.0859 -2.21,0.125 -3.24,0.125 -8.86,0 -15.93,-0.7266 -21.22,-2.2032 -5.3,-1.4765 -9.42,-3.6953 -12.37,-6.6328 -2.25,-2.2617 -3.9,-4.8633 -4.94,-7.8125 -1.04,-2.9531 -1.56,-6.4219 -1.56,-10.414 0,-6.7735 1.7,-12.0118 5.07,-15.75 3.38,-3.7266 8.29,-5.5938 14.71,-5.5938 5.37,0 10.45,1.4766 15.22,4.4258 4.78,2.9531 8.54,6.8594 11.32,11.7187 l 0.52,31.7422 c -1.2,0.1719 -2.38,0.3125 -3.51,0.3946 z m 26.42,-69.0899 c -4.33,1.7266 -8.11,4.1563 -11.31,7.2774 -3.22,3.1211 -5.53,6.6757 -6.9,10.6796 -1.23,-1.0546 -2.26,-1.9531 -3.12,-2.7421 -0.87,-0.7852 -1.66,-1.6016 -2.35,-2.4727 -0.18,0 -0.43,-0.168 -0.79,-0.5195 -0.35,-0.3516 -0.68,-0.6446 -1.04,-0.9141 -0.35,-0.25 -0.7,-0.5625 -1.04,-0.9101 -3.99,-2.9532 -8.29,-5.0743 -12.88,-6.3672 -4.6,-1.3047 -9.67,-1.9532 -15.22,-1.9532 -7.99,0 -14.54,0.9571 -19.66,2.8516 -5.11,1.9102 -9.41,4.5117 -12.88,7.8125 -2.95,2.7695 -5.24,6.0703 -6.9,9.8945 -1.65,3.8086 -2.73,7.7149 -3.25,11.7032 -0.17,1.039 -0.31,2.039 -0.39,2.9921 -0.09,0.9571 -0.13,1.9532 -0.13,2.9961 0,15.1055 5.76,26.586 17.31,34.4961 11.54,7.8828 28.07,11.8325 49.58,11.8325 0.69,0 1.31,0 1.83,0 0.51,0 0.94,0 1.29,0 0.87,0 1.7,-0.043 2.47,-0.129 0.79,-0.082 1.79,-0.125 2.99,-0.125 v 7.797 c 0,5.031 -0.21,8.894 -0.64,11.593 -0.44,2.684 -1.44,4.977 -3,6.887 -1.74,2.094 -3.82,3.609 -6.25,4.566 -2.43,0.942 -5.55,1.418 -9.36,1.418 -3.65,0 -7.46,-0.433 -11.45,-1.293 -4,-0.871 -8.25,-2.343 -12.76,-4.425 -0.69,-0.352 -1.39,-0.645 -2.08,-0.914 -0.7,-0.25 -1.39,-0.559 -2.08,-0.911 -1.04,-0.519 -2.05,-1.043 -2.99,-1.562 -0.96,-0.52 -1.87,-1.121 -2.74,-1.813 -1.04,-0.535 -2.04,-1.136 -2.99,-1.828 -0.96,-0.699 -2.04,-1.472 -3.25,-2.343 l -11.97,18.476 c 1.56,1.039 3.08,1.996 4.55,2.867 1.48,0.871 2.9,1.645 4.29,2.348 1.39,0.687 2.86,1.434 4.42,2.203 1.56,0.789 3.14,1.52 4.7,2.207 0.52,0.184 0.99,0.352 1.43,0.535 0.42,0.168 0.9,0.336 1.42,0.52 1.91,0.855 3.86,1.601 5.86,2.207 1.99,0.601 3.95,1.164 5.86,1.683 3.81,1.043 7.67,1.829 11.58,2.348 3.9,0.52 7.85,0.789 11.84,0.789 9.71,0 17.88,-1.785 24.47,-5.34 6.59,-3.554 11.28,-8.894 14.05,-16.008 0.18,-0.347 0.31,-0.644 0.39,-0.91 0.09,-0.254 0.13,-0.562 0.13,-0.914 0.87,-2.429 1.43,-5.074 1.7,-7.941 0.25,-2.852 0.39,-7.152 0.39,-12.871 0,-0.352 0,-0.871 0,-1.574 0,-0.688 0,-1.391 0,-2.079 0,-0.168 0,-0.351 0,-0.519 -0.18,-0.871 -0.27,-1.645 -0.27,-2.348 0,-0.687 0,-1.125 0,-1.293 l -0.78,-39.8201 c 0,-0.3515 0,-0.8281 0,-1.4336 0,-0.6054 0,-1.1679 0,-1.6875 0,-0.1835 0,-0.3945 0,-0.6601 0,-0.2539 0,-0.5625 0,-0.8984 0,-7.6446 0.78,-13.2383 2.34,-16.793 1.56,-3.5547 4.52,-6.7305 8.86,-9.5 l -13.28,-17.168"
         style="fill:#ffffff;fill-opacity:1;fill-rule:nonzero;stroke:none"
         transform="matrix(0.13333333,0,0,-0.13333333,0,119.57333)" />
      <path
         id="path17"
         d="m 2218.19,16.1367 c -0.71,0.6914 -1.31,1.293 -1.83,1.8125 -0.52,0.5235 -1.04,0.9571 -1.56,1.3086 -2.43,2.0781 -4.38,4.2852 -5.86,6.6328 -1.48,2.3477 -2.64,4.9883 -3.51,7.9375 -4.68,-5.5508 -10.29,-9.75 -16.8,-12.6172 -6.5,-2.8671 -13.82,-4.3007 -21.99,-4.3007 -8.5,0 -16,1.7421 -22.51,5.2148 -6.5,3.457 -10.97,8.2344 -13.4,14.3047 -1.21,2.6133 -2.08,5.6914 -2.6,9.2461 -0.52,3.5547 -0.77,7.7578 -0.77,12.6172 v 91.617 l 25.5,4.945 V 64.5469 c 0,-6.2539 0.38,-10.9336 1.17,-14.0664 0.78,-3.1211 2.3,-5.6328 4.55,-7.5469 1.56,-1.3906 3.47,-2.5977 5.73,-3.6367 2.25,-1.0391 4.68,-1.6446 7.28,-1.8281 0.17,0 0.39,0 0.66,0 0.25,0 0.55,0 0.9,0 0.35,0 0.74,0 1.18,0 0.42,0 0.91,0.0859 1.43,0.2656 5.2,0.5234 10.23,2.5586 15.1,6.1133 4.84,3.5546 8.58,7.9375 11.18,13.1523 v 92.391 l 24.98,4.945 V 58.8125 c 0,-5.9023 0.31,-10.4102 0.92,-13.5312 0.6,-3.1211 1.52,-5.9844 2.74,-8.586 0.33,-0.7031 0.64,-1.3047 0.91,-1.8281 0.25,-0.5195 0.55,-1.0391 0.9,-1.5586 0.52,-0.5195 1,-1.0391 1.43,-1.5586 0.44,-0.5195 1,-1.1367 1.7,-1.8281 l -17.43,-13.7852"
         style="fill:#ffffff;fill-opacity:1;fill-rule:nonzero;stroke:none"
         transform="matrix(0.13333333,0,0,-0.13333333,0,119.57333)" />
      <path
         id="path18"
         d="M 2250.68,0.0234375 V 18.5 h 23.95 v 194.152 h -23.95 v 18.481 h 47.37 V 0.0234375 h -47.37"
         style="fill:#ffffff;fill-opacity:1;fill-rule:nonzero;stroke:none"
         transform="matrix(0.13333333,0,0,-0.13333333,0,119.57333)" />
      <path
         id="path19"
         d="m 0,892.609 h 872.574 l -0.207,-116.906 c 0,0 -276.234,-564.629 -872.367,-450.449 v 567.355"
         style="fill:#ffffff;fill-opacity:1;fill-rule:nonzero;stroke:none"
         transform="matrix(0.13333333,0,0,-0.13333333,0,119.57333)" />
      <path
         id="path20"
         d="M 872.367,538.102 V 215.805 c 0,0 -73.976,57.453 -160.707,99.156 19.852,20.398 97.645,108.855 160.707,223.141"
         style="fill:#ffffff;fill-opacity:1;fill-rule:nonzero;stroke:none"
         transform="matrix(0.13333333,0,0,-0.13333333,0,119.57333)" />
      <path
         id="path21"
         d="m 599.008,209.922 c 0,0 166.711,-64.465 273.566,-189.8829 -49.894,0 -763.062,0 -763.062,0 221.25,2.6328 423.125,132.6329 489.496,189.8829"
         style="fill:#ffffff;fill-opacity:1;fill-rule:nonzero;stroke:none"
         transform="matrix(0.13333333,0,0,-0.13333333,0,119.57333)" />
      <path
         id="path22"
         d="m 670.398,416.395 13.137,-11.133 c 0,0 -30.562,-30.063 -68.308,-59.121 l -11.774,16.367 c 0,0 18.789,12.191 66.945,53.887"
         style="fill:#ffffff;fill-opacity:1;fill-rule:nonzero;stroke:none"
         transform="matrix(0.13333333,0,0,-0.13333333,0,119.57333)" />
      <path
         id="path23"
         d="m 344.164,232.902 9.02,-28.39 c 0,0 75.156,27.39 117.91,50.773 -3.84,6.68 -12.024,22.543 -12.024,22.543 0,0 -60.461,-28.055 -114.906,-44.926"
         style="fill:#ffffff;fill-opacity:1;fill-rule:nonzero;stroke:none"
         transform="matrix(0.13333333,0,0,-0.13333333,0,119.57333)" />
      <path
         id="path24"
         d="m 186.734,194.734 5.989,-35.046 c 0,0 -84.731,-18.856 -153.4964,-21.297 l -1.5508,40.816 c 0,0 55.6758,-0.664 149.0582,15.527"
         style="fill:#ffffff;fill-opacity:1;fill-rule:nonzero;stroke:none"
         transform="matrix(0.13333333,0,0,-0.13333333,0,119.57333)" />
    </g>
  </g>
</svg>
