<?xml version="1.0" standalone="no"?>
<!DOCTYPE svg PUBLIC "-//W3C//DTD SVG 1.1//EN" "http://www.w3.org/Graphics/SVG/1.1/DTD/svg11.dtd">
<svg xmlns="http://www.w3.org/2000/svg" xmlns:xlink="http://www.w3.org/1999/xlink" zoomAndPan="magnify" preserveAspectRatio="xMidYMid meet" version="1.0" viewBox="30.75 95.42 313.3 184.47" width="313.29998779296875" height="184.47000122070312"><path fill="#248232" d="M 168.152344 255.792969 C 191.707031 206.234375 215.136719 157.050781 238.5 107.839844 C 241.945312 100.582031 247.085938 95.835938 255.429688 95.730469 C 263.605469 95.632812 268.921875 100.171875 272.261719 107.207031 C 288.4375 141.277344 304.703125 175.308594 320.597656 209.511719 C 326.839844 222.949219 318.441406 235.113281 303.429688 235.140625 C 276.257812 235.195312 249.085938 235.238281 221.914062 235.0625 C 218.144531 235.039062 216.34375 236.210938 214.820312 239.644531 C 210.53125 249.292969 205.816406 258.753906 201.199219 268.253906 C 196.515625 277.878906 187.488281 282.039062 178.503906 278.816406 C 169.554688 275.605469 165.421875 266.6875 168.152344 255.792969 M 265.160156 174.128906 C 262.132812 167.777344 259.101562 161.429688 255.527344 153.9375 C 247.1875 171.53125 239.492188 187.773438 231.519531 204.597656 C 247.949219 204.597656 263.429688 204.597656 279.785156 204.597656 C 274.855469 194.320312 270.179688 184.5625 265.160156 174.128906 Z M 265.160156 174.128906 " fill-opacity="1" fill-rule="nonzero"/><path fill="#248232" d="M 172.171875 164.050781 C 171.15625 174.683594 168.007812 184.148438 162.898438 192.988281 C 157.726562 201.945312 147.6875 205.195312 139.253906 200.597656 C 130.144531 195.628906 126.828125 185.835938 131.898438 176.566406 C 138.050781 165.324219 139.164062 154.042969 133.855469 142.351562 C 131.046875 136.15625 126.269531 131.632812 119.324219 131.398438 C 102.570312 130.824219 85.792969 130.835938 69.027344 130.796875 C 68.105469 130.796875 66.746094 132.335938 66.363281 133.429688 C 65.890625 134.777344 66.21875 136.410156 66.21875 137.921875 C 66.214844 178.695312 66.242188 219.472656 66.195312 260.246094 C 66.183594 271.136719 60.054688 278.570312 50.464844 279.675781 C 40.914062 280.773438 32.402344 274.199219 31.152344 264.675781 C 30.871094 262.519531 30.785156 260.328125 30.785156 258.152344 C 30.765625 211 30.785156 163.847656 30.753906 116.695312 C 30.75 109.503906 31.898438 102.6875 38.675781 98.816406 C 41.886719 96.984375 45.875 95.632812 49.527344 95.589844 C 71.503906 95.332031 93.488281 95.398438 115.464844 95.578125 C 146.507812 95.835938 165.929688 116.410156 171.109375 145.074219 C 172.199219 151.117188 171.878906 157.417969 172.171875 164.050781 Z M 172.171875 164.050781 " fill-opacity="1" fill-rule="nonzero"/><path fill="#2d3a3a" d="M 321.960938 245.253906 C 334.6875 242.746094 343.324219 251.921875 344 260.675781 C 344.671875 269.394531 338.949219 277.519531 330.59375 279.410156 C 321.816406 281.402344 312.871094 276.703125 309.828125 268.503906 C 306.824219 260.410156 310.257812 251.167969 317.898438 246.914062 C 319.054688 246.269531 320.351562 245.871094 321.960938 245.253906 Z M 321.960938 245.253906 " fill-opacity="1" fill-rule="nonzero"/><path fill="#2d3a3a" d="M 98.605469 186.894531 C 110.683594 186.804688 118.757812 194.535156 118.226562 205.21875 C 117.730469 215.238281 109.257812 222.785156 99.40625 221.984375 C 90.953125 221.292969 84.066406 214.488281 83.265625 206.027344 C 82.398438 196.851562 88.128906 189.523438 98.605469 186.894531 Z M 98.605469 186.894531 " fill-opacity="1" fill-rule="nonzero"/></svg>